# xmcd
#
# Track frame offsets: 
#        150
#        16078
#        34707
#
# Disc length: 758 seconds
#
# Revision: 2
# Processed by: cddbd v1.5.2PL0 Copyright (c) Steve Scherf et al.
# Submitted via: ExactAudioCopy v0.99pb3
#
DISCID=1502f403
DTITLE=???? - ??????
DYEAR=2003
DGENRE=Pop
TTITLE0=??????
TTITLE1=la salle de bain
TTITLE2=????????????????
EXTD=YEAR: 2003
EXTT0=
EXTT1=
EXTT2=
PLAYORDER=
